<svg xmlns="http://www.w3.org/2000/svg" xmlns:svg="http://www.w3.org/2000/svg" xmlns:xlink="http://www.w3.org/1999/xlink" id="svg5" width="789.33" height="554.473" version="1.1" viewBox="0 0 208.844 146.704"><defs id="defs2"><rect id="rect13621" width="1.208" height="41.077" x="353.053" y="571.537"/><linearGradient id="linearGradient75888"><stop style="stop-color:#3771c8;stop-opacity:1" id="stop75884" offset="0"/><stop style="stop-color:#f06;stop-opacity:1" id="stop75886" offset="1"/></linearGradient><linearGradient id="linearGradient37719"><stop style="stop-color:#1a1a1a;stop-opacity:1" id="stop37715" offset="0"/><stop style="stop-color:#666;stop-opacity:1" id="stop37717" offset="1"/></linearGradient><linearGradient id="linearGradient22675"><stop style="stop-color:#ececec;stop-opacity:1" id="stop22671" offset="0"/><stop style="stop-color:#4d4d4d;stop-opacity:1" id="stop22673" offset="1"/></linearGradient><linearGradient id="linearGradient22677" x1=".811" x2="212.47" y1="62.812" y2="62.9" gradientUnits="userSpaceOnUse" xlink:href="#linearGradient22675"/><linearGradient id="linearGradient37521" x1="13.231" x2="199.583" y1="155.229" y2="55.792" gradientUnits="userSpaceOnUse" xlink:href="#linearGradient37719"/><clipPath id="clipPath37865" clipPathUnits="userSpaceOnUse"><rect style="fill:#333;fill-rule:evenodd;stroke-width:.803426" id="rect37867" width="208.844" height="146.704" x=".84" y="18.066" ry="15.653"/></clipPath><linearGradient id="linearGradient75882" x1="209.677" x2=".227" y1="35.893" y2="37.525" gradientUnits="userSpaceOnUse" xlink:href="#linearGradient75888"/><clipPath id="clipPath76102" clipPathUnits="userSpaceOnUse"><rect style="display:none;fill:#ff0;stroke-width:.28172" id="rect76104" width="253.258" height="142.495" x="-20.168" y="46.013" d="M -20.168482,46.013485 H 233.08968 V 188.50801 H -20.168482 Z"/><path id="lpe_path-effect76106" style="display:block;fill:#ff0;stroke-width:.28172" d="M -4.1604312,13.065813 H 214.68323 V 169.77016 H -4.1604312 Z M -20.168482,46.013485 V 188.50801 H 233.08968 V 46.013485 Z" class="powerclip"/></clipPath></defs><g id="layer1" style="display:inline" transform="translate(-0.83956879,-18.065813)"><rect style="opacity:1;fill:url(#linearGradient37521);fill-opacity:1;stroke:none;stroke-width:1;stroke-linecap:square;stroke-linejoin:round;stroke-miterlimit:1;stroke-dasharray:none;stroke-dashoffset:0;stroke-opacity:1" id="rect37387" width="208.844" height="146.704" x=".84" y="18.066" clip-path="url(#clipPath37865)"/></g><g id="layer2" style="display:inline" transform="translate(-0.83956879,-18.065813)"><path style="fill:url(#linearGradient75882);fill-opacity:1;fill-rule:evenodd;stroke:none;stroke-width:1;stroke-miterlimit:4;stroke-dasharray:none;stroke-opacity:1" id="path75194" width="208.844" height="146.704" x=".84" y="18.066" d="M 16.492972,18.065813 H 194.02982 c 8.67199,0 15.65341,6.981418 15.65341,15.653403 V 149.11676 c 0,8.67198 -6.98142,15.6534 -15.65341,15.6534 H 16.492972 c -8.6719853,0 -15.65340321,-6.98142 -15.65340321,-15.6534 V 33.719216 c 0,-8.671985 6.98141791,-15.653403 15.65340321,-15.653403 z" clip-path="url(#clipPath76102)" ry="15.653"/><g id="text75198" aria-label="&gt;" style="font-size:105.833px;line-height:1.25;font-family:Keraleeyam;-inkscape-font-specification:Keraleeyam;display:inline;fill:#fff;stroke-width:1.9;stroke-linecap:square;stroke-linejoin:round;stroke-miterlimit:1" transform="translate(-5.8223699,-2.604748)"><path d="m 42.129251,62.637853 45.475117,32.96946 V 113.38395 L 40.320582,147.07688 30.605443,127.90498 66.468774,104.90904 30.708795,80.156108 Z" style="font-family:'Lazer Game Zone';-inkscape-font-specification:'Lazer Game Zone'" id="path5740"/></g><g id="text15785" aria-label="_" style="font-size:105.833px;line-height:1.25;stroke-width:.264583" transform="translate(18.218708,-2.604748)"><path d="M 166.8056,126.89775 V 147.4649 H 95.492352 v -20.56715 z" style="font-family:'Lazer Game Zone';-inkscape-font-specification:'Lazer Game Zone';fill:#fff" id="path5737"/></g></g><g id="layer3" style="display:inline" transform="translate(-0.83956879,-18.065813)"><rect style="opacity:1;fill:#fff;stroke:none;stroke-width:6.50397;stroke-linecap:square;stroke-linejoin:round;stroke-miterlimit:1;stroke-dasharray:none;stroke-dashoffset:0;stroke-opacity:1" id="rect77190" width="214.302" height="1.2" x="-.278" y="45.979"/></g><g id="layer4" style="display:none" transform="translate(-0.83956879,-18.065813)"><rect style="fill:url(#linearGradient22677);fill-opacity:1;stroke-width:.264583" id="rect22530" width="224.435" height="157.004" x="-4.16" y="13.066" ry="0"/></g></svg>